# xmcd
#
# Track frame offsets: 
#        151
#        13514
#        26566
#        39992
#        55227
#        70811
#        84339
#        97767
#        107487
#        114980
#        122291
#        136562
#        149637
#        161916
#        175532
#        188312
#        201248
#        212668
#        227136
#        239490
#        252468
#        265759
#        278132
#        289985
#        301676
#        315297
#
# Disc length: 4391 seconds
#
# Revision: 0
# Processed by: cddbd v1.4PL0 Copyright (c) Steve Scherf et al.
# Submitted via: ExactAudioCopy v0.90b3
#
DISCID=5511251a
DTITLE=Various Artist - Country Music Hall Of Greats
DYEAR=1900
DGENRE=
TTITLE0=De Ford Bailey/Pan American Blues
TTITLE1=Jimmie Rodgers/Blue Yodel No 10
TTITLE2=Jimmie Rodgers/Miss The Mississippi And You
TTITLE3=Carter Family/The Wandering Boy
TTITLE4=Carter Family/The Poor Orphan Child
TTITLE5=Delmore Brothers/Take It To The Captain
TTITLE6=Delmore Brothers/Rounder's Blues
TTITLE7=Merle Travis/Nine Pound Hammer
TTITLE8=Merle Travis/Cannonball Rag
TTITLE9=Merle Travis/ No Vacancy
TTITLE10=Lonzo and Oscar/I'm My Own Grandpa
TTITLE11=Eddy Arnold/Each Minute Seems Like A Million Years
TTITLE12=Bill Monroe/Footprints In The Snow
TTITLE13=Pee Wee King/Tennessee Waltz
TTITLE14=Jimmy Walker and Paul Westmoreland/Detour
TTITLE15=Tex Ritter/I'm Wasting My Tears On You
TTITLE16=Tex Ritter/Ay Viva Tequila
TTITLE17=Tex Ritter/Rye Whiskey
TTITLE18=Hank Williams/My Love For You
TTITLE19=Hank Williams/I Don't Care
TTITLE20=Hank Williams/Calling You
TTITLE21=Hank Williams/Never Again
TTITLE22=Eddy Arnold/Bouquet Of Roses
TTITLE23=Ernest Tubb/I Ain't Honky Tonkin' Anymore
TTITLE24=Moon Mullican and Cliff Bruner/Pipeliner Blues
TTITLE25=De Ford Bailey/Dixie Flyer Blues
EXTD=
EXTT0=
EXTT1=
EXTT2=
EXTT3=
EXTT4=
EXTT5=
EXTT6=
EXTT7=
EXTT8=
EXTT9=
EXTT10=
EXTT11=
EXTT12=
EXTT13=
EXTT14=
EXTT15=
EXTT16=
EXTT17=
EXTT18=
EXTT19=
EXTT20=
EXTT21=
EXTT22=
EXTT23=
EXTT24=
EXTT25=
PLAYORDER=
